HIERARCHY
ROOT Bip001_Pelvis
{
  OFFSET 2.11667 93.5892 -0.791448
  CHANNELS 6 Xposition Yposition Zposition Zrotation Xrotation Yrotation
  JOINT Bip001_Spine
  {
    OFFSET 1.44608e-005 10.4157 -0.0118244
    CHANNELS 3 Zrotation Xrotation Yrotation
    JOINT Bip001_L_Thigh
    {
      OFFSET 11.2582 -10.4157 0.0118432
      CHANNELS 3 Zrotation Xrotation Yrotation
      JOINT Bip001_L_Calf
      {
        OFFSET -0.720717 -44.8687 0.366937
        CHANNELS 3 Zrotation Xrotation Yrotation
        JOINT Bip001_L_Foot
        {
          OFFSET -0.664439 -41.3745 -3.62995
          CHANNELS 3 Zrotation Xrotation Yrotation
          JOINT Bip001_L_Toe0
          {
            OFFSET 0.0541048 -10.4146 13.4033
            CHANNELS 3 Zrotation Xrotation Yrotation
            End Site
            {
              OFFSET -1.04503e-005 0 7.70137
            }
          }
        }
      }
    }
    JOINT Bip001_R_Thigh
    {
      OFFSET -11.2582 -10.4156 0.0118122
      CHANNELS 3 Zrotation Xrotation Yrotation
      JOINT Bip001_R_Calf
      {
        OFFSET 0.72059 -44.8687 0.36676
        CHANNELS 3 Zrotation Xrotation Yrotation
        JOINT Bip001_R_Foot
        {
          OFFSET 0.664321 -41.3745 -3.62979
          CHANNELS 3 Zrotation Xrotation Yrotation
          JOINT Bip001_R_Toe0
          {
            OFFSET -0.05417 -10.4146 13.4033
            CHANNELS 3 Zrotation Xrotation Yrotation
            End Site
            {
              OFFSET -1.04873e-005 0 7.70137
            }
          }
        }
      }
    }
    JOINT Bip001_Spine1
    {
      OFFSET 1.90638e-005 14.8539 1.10727
      CHANNELS 3 Zrotation Xrotation Yrotation
      JOINT Bip001_Spine2
      {
        OFFSET 2.28934e-005 14.7848 -1.7233
        CHANNELS 3 Zrotation Xrotation Yrotation
        JOINT Bip001_Neck
        {
          OFFSET 2.24514e-005 15.6905 -0.498826
          CHANNELS 3 Zrotation Xrotation Yrotation
          JOINT Bip001_L_Clavicle
          {
            OFFSET 6.17691 -0.000591152 0.00852867
            CHANNELS 3 Zrotation Xrotation Yrotation
            JOINT Bip001_L_UpperArm
            {
              OFFSET 11.773 -0.0611878 0.00197697
              CHANNELS 3 Zrotation Xrotation Yrotation
              JOINT Bip001_L_Forearm
              {
                OFFSET 26.4515 0.0817567 -2.1958
                CHANNELS 3 Zrotation Xrotation Yrotation
                JOINT Bip001_L_Hand
                {
                  OFFSET 32.8677 0.156744 1.67112
                  CHANNELS 3 Zrotation Xrotation Yrotation
                  JOINT Bip001_L_Finger0
                  {
                    OFFSET 6.16267 -2.25228 6.01669
                    CHANNELS 3 Zrotation Xrotation Yrotation
                    End Site
                    {
                      OFFSET 4.30498 -1.46664 0.618143
                    }
                  }
                  JOINT Bip001_L_Finger1
                  {
                    OFFSET 11.2957 -0.71838 -0.201961
                    CHANNELS 3 Zrotation Xrotation Yrotation
                    End Site
                    {
                      OFFSET 6.31952 -0.405166 -0.0802296
                    }
                  }
                }
              }
            }
          }
          JOINT Bip001_R_Clavicle
          {
            OFFSET -6.17691 -0.000574027 0.00851165
            CHANNELS 3 Zrotation Xrotation Yrotation
            JOINT Bip001_R_UpperArm
            {
              OFFSET -11.773 -0.0611516 0.00194365
              CHANNELS 3 Zrotation Xrotation Yrotation
              JOINT Bip001_R_Forearm
              {
                OFFSET -26.4514 0.0822335 -2.19736
                CHANNELS 3 Zrotation Xrotation Yrotation
                JOINT Bip001_R_Hand
                {
                  OFFSET -32.8677 0.156816 1.67144
                  CHANNELS 3 Zrotation Xrotation Yrotation
                  JOINT Bip001_R_Finger0
                  {
                    OFFSET -6.16269 -2.25224 6.01673
                    CHANNELS 3 Zrotation Xrotation Yrotation
                    End Site
                    {
                      OFFSET -4.30499 -1.46661 0.618137
                    }
                  }
                  JOINT Bip001_R_Finger1
                  {
                    OFFSET -11.2957 -0.718342 -0.201995
                    CHANNELS 3 Zrotation Xrotation Yrotation
                    End Site
                    {
                      OFFSET -6.31951 -0.405145 -0.080248
                    }
                  }
                }
              }
            }
          }
          JOINT Bip001_Head
          {
            OFFSET 1.11782e-005 11.4912 2.09908
            CHANNELS 3 Zrotation Xrotation Yrotation
            End Site
            {
              OFFSET 2.95144e-005 21.2823 -2.83069e-005
            }
          }
        }
      }
    }
  }
}
MOTION
Frames:	6
Frame Time:	0.0333333
2.13446 93.6538 -0.554051 1.13866 -5.36597 4.02983 0.241215 0.804506 0.535009 -4.43945 5.32268 0.213819 0.012034 10.8366 -0.241491 -6.06115 5.02423 -18.699 -1.67037e-006 -1.14194e-006 5.28054e-007 -2.60014 -9.80148 -2.41992 -0.0539811 27.8869 0.44859 1.98109 -8.94432 1.15759 2.98176e-016 7.9514e-016 -0 0.433375 1.64668 1.04815 0.433403 1.64628 1.04763 -1.0939 0.0278344 -0.0474667 -21.4922 -1.497 8.62584 -42.2579 37.8445 -28.5493 -0.411334 0.0341104 -4.38125 -4.79027 41.0957 -7.99332 0 3.18055e-015 -0 3.18055e-015 3.18056e-015 -0 10.3854 -2.53252 -18.6847 61.379 45.0527 21.8085 0.275165 0.023429 2.65267 -7.51808 10.2586 9.47864 -6.36111e-015 1.27222e-014 3.18055e-015 -6.36111e-015 9.54167e-015 3.18055e-015 -4.34145 4.51742 0.818598 
2.13266 93.6513 -0.553249 1.13877 -5.36945 4.03023 0.241235 0.804506 0.533587 -4.41744 5.32576 0.361397 0.0120793 10.8367 -0.242405 -6.04498 5.04646 -18.779 -1.67037e-006 -1.14194e-006 5.28054e-007 -2.59865 -9.79705 -2.417 -0.0539687 27.8855 0.448584 1.9807 -8.94424 1.15561 9.93921e-017 -1.59028e-015 -7.95137e-016 0.433379 1.64905 1.04109 0.433162 1.64881 1.04312 -1.09494 0.048094 -0.0482738 -21.4833 -1.5134 8.60663 -42.2542 37.8715 -28.5214 -0.411322 0.0341095 -4.40198 -4.79723 41.0437 -7.99242 -0 0 7.95139e-016 -0 -1.59028e-015 -0 10.4138 -2.55613 -18.6818 61.2868 45.1049 21.8601 0.275147 0.0234281 2.69852 -7.51961 10.1937 9.4674 3.18055e-015 -3.18055e-015 -3.18055e-015 3.18055e-015 -6.36111e-015 -0 -4.31627 4.42279 0.792913 
2.13012 93.6485 -0.552575 1.13885 -5.3713 4.03032 0.241254 0.804506 0.532234 -4.39231 5.3276 0.522875 0.0121444 10.8368 -0.243422 -6.0269 5.07183 -18.8667 -1.67037e-006 -1.14194e-006 5.28054e-007 -2.5976 -9.79479 -2.41504 -0.0539578 27.8842 0.448579 1.98057 -8.94418 1.15456 4.47265e-016 7.9514e-016 -0 0.433391 1.65085 1.03746 0.432996 1.65073 1.03998 -1.0955 0.0673831 -0.0489003 -21.4726 -1.52913 8.5862 -42.259 37.8912 -28.4906 -0.411311 0.0341087 -4.4196 -4.79956 40.9963 -7.99668 -3.18055e-015 0 -7.95139e-016 -3.18055e-015 1.59028e-015 -7.95139e-016 10.4289 -2.57732 -18.6754 61.2294 45.1244 21.8838 0.275128 0.0234272 2.74394 -7.52567 10.1465 9.46107 3.18055e-015 6.36111e-015 -0 3.18055e-015 0 -0 -4.28986 4.32948 0.766349 
2.12733 93.6461 -0.551415 1.1389 -5.37189 4.03015 0.241271 0.804506 0.531042 -4.369 5.32837 0.670096 0.0122251 10.837 -0.244521 -6.01114 5.09289 -18.9449 -1.67037e-006 -1.14194e-006 5.28054e-007 -2.59695 -9.79431 -2.41398 -0.0539491 27.8832 0.448575 1.98067 -8.94416 1.15431 0 0 -7.95137e-016 0.433455 1.65203 1.03537 0.4329 1.65201 1.03821 -1.09565 0.0892785 -0.0493472 -21.458 -1.54761 8.56357 -42.2763 37.9041 -28.454 -0.411307 0.0341083 -4.42701 -4.79475 40.9547 -8.00986 -4.41391e-032 -3.18055e-015 -7.95139e-016 0 0 -1.59028e-015 10.4323 -2.6001 -18.6697 61.1979 45.1302 21.8896 0.27511 0.0234264 2.78848 -7.52492 10.1141 9.45751 -3.18055e-015 -6.36111e-015 -3.18055e-015 -5.29669e-031 -9.54167e-015 -3.18055e-015 -4.27654 4.24021 0.751148 
2.12583 93.6448 -0.55073 1.13893 -5.37156 4.02976 0.241284 0.804506 0.5301 -4.35875 5.32829 0.738928 0.0123174 10.8372 -0.24568 -6.00459 5.09926 -18.9811 -1.67037e-006 -1.14194e-006 5.28054e-007 -2.59667 -9.79522 -2.4138 -0.0539429 27.8825 0.448572 1.98095 -8.94417 1.15469 9.93921e-017 0 -0 0.43356 1.65255 1.03483 0.432869 1.65261 1.03779 -1.09545 0.0940437 -0.0496156 -21.4566 -1.55101 8.55897 -42.2833 37.907 -28.4417 -0.411306 0.0341083 -4.42814 -4.79354 40.9381 -8.01292 2.64834e-031 -6.36111e-015 2.38542e-015 2.64834e-031 -4.77083e-015 3.18055e-015 10.434 -2.60554 -18.6641 61.1953 45.1319 21.8866 0.275102 0.023426 2.80863 -7.52453 10.1073 9.45661 -0 -3.18055e-015 -0 -3.18055e-015 -3.18056e-015 3.18055e-015 -4.27312 4.154 0.743813 
2.12843 93.6471 -0.551686 1.13897 -5.37068 4.02919 0.241292 0.804506 0.529501 -4.37846 5.32768 0.610299 0.0124172 10.8374 -0.246879 -6.01611 5.08366 -18.9117 -1.67037e-006 -1.14194e-006 5.28054e-007 -2.59672 -9.79714 -2.41445 -0.0539397 27.8822 0.448571 1.98139 -8.94418 1.15558 4.96961e-017 -7.9514e-016 -3.97569e-016 0.433695 1.65236 1.03584 0.432899 1.65246 1.03874 -1.09495 0.0812716 -0.0497065 -21.4623 -1.53856 8.5667 -42.2737 37.8983 -28.4659 -0.411309 0.0341085 -4.42376 -4.79253 40.9718 -8.00712 6.62086e-032 -1.59028e-015 2.38542e-015 -3.18055e-015 0 1.59028e-015 10.4325 -2.59258 -18.6733 61.2137 45.128 21.8827 0.275117 0.0234267 2.77128 -7.52455 10.1284 9.45852 -3.18055e-015 3.18055e-015 -0 -3.18055e-015 6.36111e-015 -0 -4.27407 4.07431 0.740744 
